<svg fill="none" height="176" viewBox="0 0 176 176" width="176" xmlns="http://www.w3.org/2000/svg" xmlns:xlink="http://www.w3.org/1999/xlink"><clipPath id="a"><path d="m0 0h176v176h-176z"/></clipPath><g clip-path="url(#a)"><path d="m0 0h176v176h-176z" fill="#fff"/><path d="m129.295 103.193c-15.595 8.724-22.593 11.954-34.1779 14.024-11.5844 2.071-31.5358 4.152-36.207 2.514-4.6712-1.639-18.4998-10.051-21.198-14.021-2.6891-3.972-15.1046-38.194-15.6983-43.8642-.6024-5.6614 20.3168-13.5254 29.0274-18.3776 8.7102-4.8523 20.2662-7.0854 37.8807-4.2969 17.6251 2.7863 34.2241-.1803 41.3251 8.4449 7.1 8.6253 13.705 18.9899 13.705 18.9899s-4.28 20.8807-5.103 23.0065c-.822 2.1258-9.554 13.5804-9.554 13.5804z" fill="#c3eefe"/><g stroke="#000" stroke-linecap="round" stroke-linejoin="round" stroke-width="2"><path d="m76.7671 38.7549c4.7921-.2984 9.8738-1.9987 14.4738.255 1.8298.8965 3.7525 1.4923 5.5539 2.5102 2.4087 1.3609 4.0442 3.6847 6.1652 5.4017"/><path d="m107.675 52.5435c1.009 2.783 2.845 5.5056 3.155 8.4601"/><path d="m38.961 90.0811c-5.8106-19.9056-1.7789-37.9208 10.527-52.6699 3.8013-3.8435 9.285-7.5599 14.7409-9.1059 5.2401-1.4849 13.1305-3.9565 18.4166-3.7343 18.7175.7868 31.5455 10.9294 37.1585 29.3575 4.89 16.0562.632 32.807-7.65 46.9775-7.023 12.018-20.9733 16.912-34.2462 16.914-15.6803.002-34.4233-12.242-38.9468-27.7389z"/><path d="m44.5999 87.3501c-4.95-17.1132-1.3845-32.6393 9.3327-45.3876 3.3076-3.3247 8.0716-6.5467 12.8026-7.9001 4.5439-1.2999 11.387-3.4602 15.9637-3.2906 16.2053.6004 27.2721 9.2796 32.0571 25.1215 4.169 13.803.413 28.2416-6.817 40.4749-6.132 10.3758-18.2322 14.6468-29.7262 14.7028-13.5787.066-29.7593-10.398-33.6129-23.7209z"/><path d="m83.9083 63.8015c2.4083-1.53 2.6353-3.5516 3.0569-6.0827"/><path d="m69.5167 64.1391c-1.6619 1.0616-1.5457 3.1529-1.445 4.9503.212 3.7836 1.7054 7.5846 3.61 10.8264 2.6423 4.4973 7.6141 8.994 13.1745 8.9749 1.7707-.0061 3.7623-.5653 5.1678-1.6852 1.6409-1.3075 2.3715-4.5768 2.7752-6.5038.9567-4.5668-.7035-9.0236-3.7035-12.4636-3.4008-3.8994-8.7782-6.505-13.9807-5.8628-2.3656.292-5.1933.8795-6.6018 2.9496"/><path d="m69.6022 76.5887c2.7793-1.1909 4.9339-2.8981 7.2965-4.7496 1.501-1.1763 2.2184-2.6727 3.0724-4.2746.6357-1.1926.8546-5.2992.9169-3.9492"/><path d="m71.9272 81.1211c-1.0922 2.4616-3.7059 4.2605-6.3806 4.608"/><path d="m76.3599 86.0489c-.7183 1.6606-1.3785 3.1418-2.7837 4.3563-1.1293.976-2.1898 1.224-3.4915 1.9516"/><path d="m82.5429 88.9338c-.2657 3.0296-1.3148 5.4697-3.813 7.3384"/><path d="m88.9688 67.6378c2.4-.8519 4.8091-3.2733 5.0174-5.9288"/><path d="m93.3343 75.8204c2.4695.1379 5.8693-1.7105 6.3107-4.3606"/><path d="m68.1119 67.2154c-1.7026-.502-3.3672-1.1189-5.087-1.5653-.6919-.1797-1.4529-.1828-2.0879-.4646"/><path d="m71.174 63.0048c-.6274-1.5009-1.2064-2.9287-1.6364-4.5008-.2041-.7465-.3688-1.6867-.871-2.2208"/><path d="m78.0166 77.354c2.5032.3794 5.0653.3597 7.538.9002.3091.0675 1.9843.1466.9797.2771"/><path d="m83.2432 82.6416c-.3814-2.6757-.3581-5.3902-.6718-8.0761-.0996-.8528-.1913-1.766-.2297-2.5982"/><path d="m108.275 105.828c12.585 9.906 30.32 28.382 41.32 39.99"/><path d="m114.788 95.2705c11.685 12.1395 23.872 23.8085 35.541 35.9305 2.295 2.384 4.334 4.998 6.616 7.369"/><path d="m111.864 108.567c3.288-2.177 5.63-3.935 6.943-7.636"/><path d="m117.843 113.293c2.052-1.326 6.012-3.724 6.947-7.66"/><path d="m156.888 139.161c.767 2.734.572 5.603-2.068 7.202-1.779 1.077-3.168.764-4.945.327"/></g></g></svg>