<svg fill="none" height="176" viewBox="0 0 176 176" width="176" xmlns="http://www.w3.org/2000/svg"><path d="m0 0h176v176h-176z" fill="#fff"/><path d="m138.735 102.369c-13.287 11.949-19.4 16.642-30.243 21.217-10.8421 4.574-29.843 11.005-34.7606 10.437s-20.261-5.723-23.7684-9c-3.4989-3.281-23.1566-33.9216-24.9862-39.3213-1.8363-5.389 16.8333-17.6733 24.2592-24.3273 7.4254-6.6539 18.2043-11.3807 36.0001-12.5459 17.8049-1.1696 33.3419-7.7244 42.1699-.8776 8.827 6.8469 17.556 15.4993 17.556 15.4993s.43 21.3107.097 23.5655c-.333 2.2547-6.324 15.3533-6.324 15.3533z" fill="#c3eefe"/><g stroke="#000" stroke-linecap="round" stroke-linejoin="round" stroke-width="2"><path d="m142.218 115.841.002.001m0 0c3.8 1.894 11.22-1.503 14.455-3.438-5.774.439-9.783-4.413-11.066-6.894.521-4.768-3.081-13.1441-4.948-16.7362-2.514-3.9218-6.453-6.6598-10.197-9.237-2.542-1.3148-9.55-3.5502-17.249-1.9723m29.005 38.2775c-.46 1.489-3.586 5.696-5.091 7.613-3.791 4.922-8.66 7.069-14.599 8.134-8.077 1.448-18.353-.658-24.8293-5.743-5.526-4.338-8.3272-9.845-9.632-16.739-.5516-1.221-1.3238-4.145 0-6.069"/><path d="m109.403 57.8645c-12.5234 0-24.9985-1.7727-37.5116-1.7727-4.3896 0-8.528.5996-12.9276.2676-3.3524-.253-13.4298-.6021-10.0679-.6021"/><path d="m110.306 58.4668c-.997 5.6065-1.224 11.4894-1.739 17.1588-.448 4.9286-.215 10.0115-1.121 14.901-.459 2.479-1.053 5.3539-1.053 7.8436 0 1.5657.089 1.6388-1.539 1.6388-3.164 0-6.295-.6019-9.4656-.6019-2.5978 0-5.1956 0-7.7934 0-2.4685 0-5.3098.5309-7.7265.2341-4.2569-.5228-8.5168-1.0426-12.7771-1.5888-2.2906-.2936-4.6074-.0755-6.907-.301-1.782-.1747-4.5417-.6376-6.305-.1338-.3949.1128-1.2777 2.7874-1.6724 3.2944-1.2267 1.577-2.4407 2.677-4.2144 3.613-2.2059 1.164-4.7411 1.806-7.2248 1.806-1.178 0-.7679-.32-.301-1.204.7254-1.375 1.4462-2.867 1.94-4.349 2.0021-6.0058 1.9734-11.8064 1.9734-18.0949 0-7.5146 0-15.0293 0-22.5439 0-1.1797.1619-3.0037.9031-3.9302 1.0756-1.3444 3.2477-.2773 4.5155-.1505"/><path d="m72.9021 68.669c1.5531-2.9455 4.8762-2.7852 7.5594-1.6776 2.8825 1.1899 2.4732 4.2859 1.8454 6.8487-.5604 2.2873-3.1019 4.0442-4.8088 5.476-.5902.4951-.7345.1434-.6143.9886.171 1.2013.208 2.4729.5856 3.6119"/><path d="m77.96 88.1879c-.2142.2676-1.1662 1.1987-.5648 1.5462.4082.2359.8223-.1579.9466-.525.2622-.7738-.6663-.0463.3189-.2302"/><path d="m123.666 92.2955c-1.991 5.7343-4.383 11.3195-5.925 17.2015-.172.659-1.245 4.682-.584 2.016"/><path d="m115.586 116.253c-3.297 1.442-.136 2.018.041 1.212.314-1.432-1.588-.789-.912.071"/><path d="m138.565 57.6455c0 1.2455.38 10.1463-.274 10.1463"/><path d="m135 62.8556c1.863-.0296 3.713-.255 5.576-.2742.789-.0082 1.413.0702 2.102-.2743"/><path d="m70 120.646c2.6528-.539 5.2507-1 8-1"/><path d="m74.0559 116.115c.1682 2.701.2669 5.338-.112 8.061"/><path d="m72.9648 31.3545c1.3103 3.5622 2.8053 7.0813 3.9635 10.6951"/><path d="m71.0636 37.5711c2.0499-1.3033 4.0334-2.5054 6.383-3.1529"/></g></svg>