<svg fill="none" height="176" viewBox="0 0 176 176" width="176" xmlns="http://www.w3.org/2000/svg"><path d="m0 0h176v176h-176z" fill="#fff"/><path d="m28.2599 68.7308c15.8537-12.3872 23.0823-17.2516 35.5951-21.99 12.5133-4.7376 34.3122-11.3948 39.771-10.8014 5.459.5935 22.214 5.9551 25.873 9.3584 3.647 3.4074 23.145 35.218 24.751 40.8224 1.615 5.5935-20.293 18.3248-29.151 25.2228-8.858 6.899-21.313 11.794-41.3308 12.989-20.0292 1.199-37.9595 7.987-47.2819.876-9.3224-7.112-18.3858-16.098-18.3858-16.098s1.2639-22.1129 1.8216-24.4523c.5579-2.3393 8.3378-15.9269 8.3378-15.9269z" fill="#c3eefe"/><g stroke-linecap="round" stroke-linejoin="round" stroke-width="2"><path d="m71.9781 79.0621c3.4102-3.9407 6.7751-3.8755 11.6265-3.8755 3.3956.3134 5.5089.5231 7.8479 2.616 1.9654 1.7584 4.0381 3.166 5.886 5.0139 1.9567 1.9568 3.3825 5.7418 4.3595 8.2839 1.767 4.5923-1.234 9.0326-3.8024 12.4256-3.3534 4.432-7.4891 6.976-13.0799 6.976-5.3045 0-10.4985-.148-14.6785-3.948-4.387-3.988-4.2987-13.0175-3.4879-18.2876.6078-3.9506 2.8244-6.3103 5.3288-9.2043z" stroke="#21242c"/><path d="m46.5449 139.714c6.1089-9.459 15.2194-15.783 25.6753-19.377 5.5326-1.902 11.507-2.59 17.3429-2.398 4.6757.153 12.0619.201 15.9379 3.56 2.136 1.851 5.263 3.266 7.848 4.36 2.294.971 3.931 2.932 5.765 4.433 2.306 1.886 4.145 4.148 5.474 6.806" stroke="#21242c"/><path d="m45.4007 88.375c-4.705 0-9.0067.437-11.5585 4.8652-.7705 1.337-.8456 2.8091-.9288 4.3492-.1026 1.898-.5306 3.7716.0147 5.6466.64 2.2 1.2922 4.702 3.0813 6.281 2.9317 2.586 6.6972 3.747 10.7182 3.479 1.5692-.105 3.964-1.114 5.278-1.917 1.2888-.787 1.8193-1.758 2.5506-3.066 2.4843-4.446 3.2889-12.3143.2506-16.7337-2.2213-3.231-6.4533-2.9043-9.9368-2.9043" stroke="#21242c"/><path d="m28.4165 124.466c1.2042-1.726 3.5405-3.209 5.3665-4.305 1.1795-.707 2.4394-1.133 3.7742-1.4 2.6076-.522 5.1659-.929 7.8433-.929 2.6655 0 5.6136.058 8.0792 1.209.652.304 1.5737.687 1.9903 1.312.1606.241 1.0763 1.143 1.0763.929" stroke="#21242c"/><path d="m125.544 91.2949c-2.072.0942-4.178 1.0191-6.192 1.5333-1.551.3959-2.915 2.6425-3.892 3.7595-2.365 2.7029-2.569 7.3433-2.374 10.7473.164 2.876 3.384 6.682 6.236 7.062 1.306.174 2.279 1.047 3.627 1.047 1.767 0 2.697-.178 4.32-.796 2.907-1.108 5.885-3.048 7.032-6.045 1.218-3.181.74-7.865-.265-11.057-.4-1.2689-1.235-2.4575-2.256-3.3172-.76-.6398-1.451-1.7052-2.256-2.1967-1.792-1.0955-3.715-.8696-5.572.0589" stroke="#21242c"/><path d="m113.337 122.61c4.243-1.98 5.74-2.899 10.908-2.899 3.322 0 7.739 1.098 9.228 2.215.776.582 3.576 2.675 4.798 4.798" stroke="#21242c"/><g stroke="#000"><path d="m132 50.5514c.069-2.9116 2.488-3.9223 5.071-3.4336 2.356.4457 4.048 2.8054 3.923 5.2429-.138 2.6776-1.659 4.3215-3.659 5.8768-1.055.8208-.105 3.7013-.105 4.9127"/><path d="m137.705 67.6812c-.753 2.955 1.787 1.4569 1.189.8187-.175-.1863-.189.4887.119.6736.599.3594-.06-.4679-.119-.5415"/><path d="m131.231 38.1822c4.32-.9224 8.636-1.5816 12.43-2.1029 8.879-1.22 9.639 11.9615 10.309 16.664.822 5.7645 3.842 13.409.469 18.7184-2.853 4.4886-14.215 6.5832-18.953 8.2686-7.85 2.7922-16.245 5.2441-24.446 6.7213-.159.0288-6.686.985-5.988.3044.953-.928 2.498-1.527 3.593-2.2827 3.751-2.5883 14.027-7.9409 11.793-13.9247-1.176-3.1517-2.312-6.9006-3.488-10.044-3.756-10.0411 3.796-20.0841 14.281-22.3224z"/><path d="m24.1802 65.9468c3.8521 3.2743 7.4634 6.6295 10.5907 10.5907"/><path d="m73.6035 44.4121c.6703 5.0528 1.3037 10.104 1.7651 15.1801"/><path d="m97.9624 43c-1.2391 5.3692-2.7246 10.5952-4.2363 15.8862"/><path d="m149 86.6484c3.132-1.7793 6.184-3.6522 9.179-5.6484"/><path d="m9 88.8936c4.542 1.3276 9.3833 2.3767 13.415 4.9423"/><path d="m46.7739 51.8257c2.6581 3.5604 5.1458 7.1574 7.3743 11.0026.4994.8616 1.002 1.7211 1.4906 2.5889.0472.0838.3629.6193.3922.7845.0441.2479-.2134.0149-.2549.098"/><path d="m153 99.5303c3.58-.8184 7.113-1.7183 10.669-2.6281.723-.185 3.59-.5033 2.393-.9022"/></g></g></svg>